<svg width="24" height="23" viewBox="0 0 24 23" fill="none" xmlns="http://www.w3.org/2000/svg">
<path d="M11.577 4.564V5.119L11.532 5.129C11.506 5.129 11.384 5.144 11.26 5.157C10.1348 5.27798 9.05549 5.66908 8.11399 6.297C7.3494 6.809 6.69239 7.46567 6.17999 8.23C5.50686 9.23712 5.10633 10.4015 5.01747 11.6096C4.92861 12.8177 5.15446 14.0282 5.67299 15.123C5.72299 15.226 5.76299 15.313 5.76299 15.318C5.76299 15.318 5.52699 15.463 5.23499 15.631C5.0527 15.735 4.87136 15.8407 4.69099 15.948C4.67699 15.958 4.70399 16.011 4.88699 16.328C4.95725 16.4531 5.03061 16.5765 5.10699 16.698C5.29158 16.5962 5.47493 16.4922 5.65699 16.386C5.95399 16.213 6.20099 16.073 6.20699 16.073C6.20999 16.073 6.25899 16.136 6.31299 16.213C6.80479 16.8957 7.41472 17.485 8.11399 17.953C8.63911 18.3005 9.20721 18.5781 9.80399 18.779C11.2355 19.2547 12.7825 19.2547 14.214 18.779C14.8108 18.5788 15.379 18.3014 15.904 17.954C16.6114 17.4811 17.2267 16.8833 17.72 16.19C17.783 16.1 17.837 16.028 17.84 16.028C17.842 16.028 18.084 16.166 18.376 16.334C18.668 16.504 18.915 16.644 18.924 16.648C18.937 16.658 18.988 16.573 19.154 16.286C19.346 15.955 19.364 15.915 19.349 15.903C19.339 15.893 19.094 15.753 18.803 15.586C18.6254 15.4849 18.4497 15.3805 18.276 15.273C18.276 15.273 18.312 15.191 18.356 15.099C18.9597 13.8082 19.1571 12.3645 18.922 10.959C18.7556 9.98318 18.3864 9.05313 17.838 8.229C17.3978 7.57036 16.8494 6.99086 16.216 6.515C15.8779 6.26019 15.5162 6.03819 15.136 5.852C14.3924 5.4767 13.5865 5.24048 12.758 5.155L12.488 5.127L12.44 5.117V4.007H11.577V4.564ZM11.577 7.666V8.916H11.085C10.8 8.916 10.595 8.916 10.598 8.926C10.608 8.958 12.026 11.701 12.03 11.701C12.034 11.701 13.45 8.958 13.464 8.927C13.466 8.917 13.251 8.917 12.954 8.917H12.44V6.415H12.49C12.641 6.415 13.096 6.491 13.402 6.567C13.7958 6.66309 14.1773 6.80401 14.539 6.987C14.9569 7.18973 15.3482 7.44332 15.704 7.742C15.869 7.878 16.293 8.309 16.434 8.484C16.644 8.744 16.84 9.029 17.001 9.312C17.087 9.464 17.264 9.832 17.331 10.002C17.8279 11.254 17.8686 12.641 17.446 13.92C17.35 14.21 17.176 14.623 17.152 14.623C17.139 14.623 15.159 13.483 15.139 13.463C15.126 13.452 15.161 13.383 15.362 13.036C15.492 12.808 15.602 12.618 15.602 12.612C15.602 12.601 15.609 12.601 15.352 12.59C15.25 12.59 15.157 12.58 15.148 12.579C15.138 12.579 15.043 12.569 14.933 12.569C14.823 12.569 14.709 12.559 14.679 12.557C14.649 12.557 14.553 12.547 14.463 12.546C14.375 12.546 14.28 12.536 14.253 12.535C14.226 12.535 14.119 12.525 14.016 12.523C13.912 12.523 13.811 12.513 13.791 12.513C13.771 12.513 13.673 12.503 13.571 12.502C13.469 12.502 13.368 12.492 13.347 12.491C13.327 12.491 13.217 12.481 13.104 12.48C12.992 12.48 12.892 12.47 12.884 12.469C12.842 12.459 12.484 12.451 12.484 12.457C12.484 12.457 12.791 12.941 13.166 13.524L14.009 14.834C14.155 15.06 14.172 15.084 14.185 15.067C14.193 15.056 14.309 14.857 14.444 14.624L14.689 14.2L14.721 14.219L15.734 14.803C16.272 15.113 16.712 15.373 16.712 15.378C16.712 15.394 16.552 15.608 16.422 15.768C16.1972 16.0246 15.9575 16.2677 15.704 16.496C15.4644 16.6946 15.2104 16.8751 14.944 17.036C14.68 17.1866 14.4071 17.3212 14.127 17.439C12.7666 17.9788 11.2514 17.9788 9.89099 17.439C9.69099 17.359 9.25699 17.147 9.07499 17.036C8.80852 16.8752 8.55448 16.6947 8.31499 16.496C8.06941 16.2766 7.837 16.0428 7.61899 15.796C7.51499 15.6741 7.41816 15.5462 7.32899 15.413C7.33099 15.413 7.77199 15.156 8.30899 14.846L9.31899 14.263L9.35299 14.242L9.58799 14.649C9.71799 14.873 9.82799 15.065 9.83599 15.076C9.84699 15.093 9.85599 15.086 9.91599 14.99C9.95199 14.932 10.048 14.78 10.129 14.657L10.396 14.242C10.51 14.062 10.881 13.486 10.979 13.336L11.221 12.959L11.476 12.563C11.4982 12.531 11.5176 12.4973 11.534 12.462C11.534 12.452 11.508 12.452 11.451 12.452C11.405 12.452 11.301 12.462 11.221 12.464C11.141 12.464 11.039 12.474 10.995 12.474C10.907 12.484 10.756 12.488 10.542 12.497C10.467 12.497 10.37 12.507 10.326 12.507C10.282 12.507 10.186 12.517 10.11 12.519C9.97299 12.529 9.84999 12.531 9.65999 12.541C9.60199 12.541 9.44799 12.551 9.31799 12.557C9.18799 12.567 9.03299 12.57 8.97599 12.573C8.91699 12.573 8.82299 12.583 8.76599 12.583C8.50299 12.597 8.41699 12.603 8.41699 12.61C8.41699 12.61 8.52999 12.813 8.66899 13.053L8.92199 13.49L8.89199 13.507C8.79899 13.567 6.89599 14.66 6.88799 14.66C6.87499 14.66 6.77399 14.446 6.69799 14.254C6.38127 13.4639 6.24265 12.6138 6.29199 11.764C6.36788 10.5603 6.8194 9.41064 7.58299 8.477C7.72599 8.303 8.14999 7.871 8.31499 7.735C8.69299 7.422 9.04499 7.195 9.47899 6.979C9.87899 6.783 10.204 6.662 10.616 6.559C10.926 6.482 11.349 6.411 11.516 6.409H11.577V7.666ZM8.53099 0.306L8.36299 1.27C8.27499 1.783 8.19799 2.21 8.19299 2.217C8.14129 2.24856 8.08629 2.27438 8.02899 2.294C6.32616 2.98317 4.83179 4.10329 3.69258 5.54439C2.55337 6.9855 1.80847 8.69807 1.53099 10.514C1.52114 10.5863 1.50779 10.658 1.49099 10.729C1.47099 10.782 1.42699 11.196 1.40699 11.554C1.39288 11.9319 1.39288 12.3101 1.40699 12.688C1.41999 12.923 1.43999 13.143 1.47299 13.424L1.49699 13.623L1.45399 13.663C1.34516 13.7646 1.23583 13.8656 1.12599 13.966L0.925988 14.149C0.835988 14.234 0.819988 14.249 0.363988 14.671C0.165988 14.851 0.00398801 15.006 -1.19851e-05 15.011C-0.00301199 15.011 0.131988 15.257 0.298988 15.547L2.03699 18.557C2.51304 19.3884 2.99505 20.2165 3.48299 21.041C3.48899 21.041 3.57399 21.011 3.67299 20.975L4.14099 20.804C5.09099 20.456 5.32299 20.372 5.33099 20.372C5.35802 20.3866 5.3832 20.4044 5.40599 20.425C5.60299 20.59 6.08699 20.931 6.40599 21.129C7.00805 21.4968 7.64354 21.8069 8.30399 22.055C9.889 22.6446 11.5917 22.8479 13.271 22.648C14.1556 22.5408 15.0233 22.3235 15.854 22.001C15.96 21.959 16.057 21.923 16.069 21.921C16.128 21.911 16.473 21.754 16.814 21.581C17.367 21.301 17.851 21.001 18.359 20.621L18.567 20.469L18.623 20.486L18.712 20.514C19.1604 20.6513 19.6081 20.791 20.055 20.933C20.07 20.943 20.132 20.958 20.195 20.976L20.408 21.043C20.4437 21.0557 20.4805 21.0651 20.518 21.071C20.531 21.071 24.004 15.054 24 15.044C23.997 15.034 23.79 14.862 22.924 14.14L22.509 13.793C22.489 13.773 22.489 13.77 22.511 13.613C22.631 12.769 22.645 11.933 22.556 11.053C22.3872 9.37396 21.8196 7.75958 20.9004 6.34435C19.9813 4.92912 18.7373 3.75404 17.272 2.917C16.8754 2.69317 16.466 2.49283 16.046 2.317C15.996 2.297 15.954 2.272 15.952 2.263C15.949 2.253 15.848 1.811 15.729 1.28L15.507 0.296C15.502 0.279 15.327 0.278 12.018 0.278H8.53799L8.53099 0.306ZM14.926 0.856C15.0711 1.46593 15.2131 2.07661 15.352 2.688C15.36 2.718 15.372 2.725 15.565 2.798C15.99 2.963 16.495 3.198 16.847 3.395C18.2853 4.19234 19.5041 5.33295 20.395 6.71528C21.2858 8.09762 21.821 9.67878 21.953 11.318C21.988 11.75 21.995 12.517 21.965 12.876C21.937 13.221 21.884 13.626 21.822 13.969L21.809 14.042L21.857 14.088C21.9399 14.1634 22.0249 14.2364 22.112 14.307C22.118 14.317 22.174 14.36 22.235 14.409L22.449 14.586L22.859 14.93C23.272 15.275 23.243 15.248 23.229 15.27C23.225 15.28 22.569 16.412 21.777 17.786C20.91 19.289 20.327 20.286 20.319 20.286C20.309 20.286 20.224 20.262 20.128 20.233L19.915 20.169C19.6285 20.0845 19.3428 19.9972 19.058 19.907C19.046 19.897 19.015 19.892 18.988 19.885C18.961 19.875 18.93 19.869 18.918 19.863C18.906 19.853 18.863 19.843 18.821 19.833L18.614 19.771C18.484 19.731 18.482 19.731 18.454 19.751L18.274 19.896C18.013 20.106 17.531 20.456 17.501 20.456C17.4641 20.4738 17.4286 20.4945 17.395 20.518C15.97 21.4285 14.3383 21.9647 12.651 22.077C12.2232 22.094 11.7948 22.094 11.367 22.077C9.96199 21.972 8.72699 21.634 7.52199 21.027C6.89651 20.7119 6.30535 20.3329 5.75799 19.896C5.73087 19.8712 5.7014 19.8491 5.66999 19.83C5.62864 19.8013 5.58953 19.7696 5.55299 19.735L5.44899 19.645L5.39899 19.655C5.24108 19.702 5.08556 19.7568 4.93299 19.819C4.75729 19.8848 4.58129 19.9498 4.40499 20.014L3.87599 20.207C3.8143 20.2317 3.75158 20.2537 3.68799 20.273C3.68199 20.273 3.02199 19.139 2.22199 17.753L0.766988 15.233L0.803988 15.202L1.01799 15L1.26599 14.767L1.43899 14.603C1.49499 14.549 1.56699 14.483 1.59899 14.453L1.69899 14.363C1.83479 14.2338 1.97146 14.1054 2.10899 13.978L2.18099 13.908L2.16599 13.831C2.10665 13.5003 2.06725 13.1664 2.04799 12.831C2.04799 12.744 2.04199 12.511 2.03799 12.313C2.00436 10.6415 2.39174 8.98832 3.16449 7.50574C3.93723 6.02316 5.0705 4.75879 6.45999 3.829C7.13765 3.37359 7.86925 3.00409 8.63799 2.729C8.76199 2.685 8.76799 2.681 8.77599 2.647C8.78699 2.604 8.85699 2.21 8.98999 1.445L9.09299 0.859L9.09799 0.835H12.008C14.773 0.835 14.92 0.835 14.926 0.853V0.856Z" fill="black"/>
</svg>
